<?xml version="1.0" encoding="utf-8"?>
<!-- Generator: Adobe Illustrator 24.0.2, SVG Export Plug-In . SVG Version: 6.00 Build 0)  -->
<svg version="1.1" id="圖層_1" xmlns="http://www.w3.org/2000/svg" xmlns:xlink="http://www.w3.org/1999/xlink" x="0px" y="0px"
	 viewBox="0 0 12.9 12.9" style="enable-background:new 0 0 12.9 12.9;" xml:space="preserve">
<style type="text/css">
	.st0{fill:#484747;}
</style>
<g>
	<path class="st0" d="M11,1.9C9.8,0.7,8.2,0,6.5,0C4.7,0,3.1,0.7,1.9,1.9C0.7,3.1,0,4.7,0,6.5C0,8.2,0.7,9.8,1.9,11
		c1.2,1.2,2.8,1.9,4.6,1.9c1.7,0,3.4-0.7,4.6-1.9s1.9-2.8,1.9-4.6C12.9,4.7,12.3,3.1,11,1.9z M6.5,12.4c-3.3,0-5.9-2.7-5.9-5.9
		c0-3.3,2.7-5.9,5.9-5.9c3.3,0,5.9,2.7,5.9,5.9C12.4,9.7,9.7,12.4,6.5,12.4z"/>
	<path class="st0" d="M6.5,8.8c-0.2,0-0.4,0.1-0.6,0.2C5.8,9.2,5.7,9.4,5.7,9.6c0,0.2,0.1,0.4,0.2,0.6c0.2,0.1,0.3,0.2,0.6,0.2
		c0.2,0,0.4-0.1,0.5-0.2C7.2,10,7.3,9.8,7.3,9.6c0-0.2-0.1-0.4-0.2-0.5C6.9,8.9,6.7,8.8,6.5,8.8z"/>
	<path class="st0" d="M6.5,2.6c-0.2,0-0.4,0.1-0.6,0.2C5.8,3,5.7,3.2,5.7,3.5c0,0.2,0,0.6,0,1L5.9,7c0,0.3,0.1,0.6,0.2,0.7
		c0.1,0.2,0.2,0.2,0.4,0.2c0.2,0,0.3-0.1,0.4-0.2C6.9,7.5,7,7.3,7,7l0.2-2.5c0-0.2,0-0.5,0-0.7c0-0.4,0-0.7-0.1-0.9
		C7,2.7,6.8,2.6,6.5,2.6z"/>
</g>
</svg>
