<?xml version="1.0" encoding="utf-8"?>
<!-- Generator: Adobe Illustrator 24.0.2, SVG Export Plug-In . SVG Version: 6.00 Build 0)  -->
<svg version="1.1" id="圖層_1" xmlns="http://www.w3.org/2000/svg" xmlns:xlink="http://www.w3.org/1999/xlink" x="0px" y="0px"
	 viewBox="0 0 14.3 14.3" style="enable-background:new 0 0 14.3 14.3;" xml:space="preserve">
<style type="text/css">
	.st0{fill-rule:evenodd;clip-rule:evenodd;fill:#6F1418;}
</style>
<path class="st0" d="M2.3,13.9c-0.2,0.3-0.6,0.4-1,0.4C0.6,14.3,0,13.7,0,13c0-0.4,0.2-0.8,0.5-1l3.6-3.3C3.5,7.8,3.1,6.7,3.1,5.6
	C3.1,2.5,5.6,0,8.7,0c3.1,0,5.6,2.5,5.6,5.6c0,3.1-2.5,5.6-5.6,5.6c-1,0-1.9-0.3-2.7-0.7L2.3,13.9L2.3,13.9z M8.7,1.8
	c-2.1,0-3.8,1.7-3.8,3.8c0,2.1,1.7,3.8,3.8,3.8c2.1,0,3.8-1.7,3.8-3.8C12.5,3.5,10.8,1.8,8.7,1.8z"/>
</svg>
