<?xml version="1.0" encoding="utf-8"?>
<!-- Generator: Adobe Illustrator 24.0.2, SVG Export Plug-In . SVG Version: 6.00 Build 0)  -->
<svg version="1.1" id="圖層_1" xmlns="http://www.w3.org/2000/svg" xmlns:xlink="http://www.w3.org/1999/xlink" x="0px" y="0px"
	 viewBox="0 0 207.4 22.1" style="enable-background:new 0 0 207.4 22.1;" xml:space="preserve">
<style type="text/css">
	.st0{fill:#FFFFFF;}
	.st1{fill:#E25600;}
</style>
<path class="st0" d="M0.3,11.8c0.5-0.6,1.4-1.3,1.9-2.6C2.3,9,2.6,9,2.6,9.3c0,0.2,0,0.4,0,0.6h14.2c0.4,0,0.7-0.1,1.1-0.5l0.9,0.9
	c0.4,0.4,0.5,0.6,0.2,0.8c-0.7,0.6-1.5,1.4-2.1,1.9c-0.2,0.2-0.5,0-0.4-0.3c0.2-0.4,0.6-1.2,0.7-1.6H2.5c-0.1,0.5-0.2,0.9-0.4,1.3
	C1.2,14.3-0.8,13.1,0.3,11.8z M19.2,20.5c0,0.5-0.4,0.7-1.1,0.7H1.1c-0.4,0-0.5-0.2-0.9-1.2h8.6v-1.2h-5c-0.4,0-0.4-0.2-0.8-1.1h5.8
	v-1.6l1.5,0.3c0.2,0,0.4,0.2,0.4,0.3v1h3.6c0.4,0,0.6-0.1,0.9-0.6c0.4,0.5,0.7,0.7,0.7,1c0,0.5-0.3,0.7-1,0.7h-4.3v1.2h6.7
	c0.4,0,0.6-0.2,1-0.7C18.9,19.9,19.2,20.2,19.2,20.5z M1,1.7h7.9V0.4l1.5,0.3c0.2,0,0.4,0.2,0.4,0.3v0.6h6c0.4,0,0.6-0.2,0.9-0.6
	c0.4,0.4,0.8,0.7,0.8,1.1c0,0.5-0.4,0.7-1.1,0.7h-6.6v1.1h3.5c0.4,0,0.5-0.1,0.9-0.6c0.4,0.4,0.8,0.7,0.8,1c0,0.5-0.4,0.7-1.1,0.7
	H4.2c-0.4,0-0.5-0.2-0.8-1.1h5.5V2.8h-7C1.5,2.8,1.4,2.5,1,1.7z M7.3,13.2H3.4c-0.4,0-0.4-0.2-0.8-1.1h11.5c0.4,0,0.5-0.1,0.8-0.6
	c0.4,0.5,0.7,0.7,0.7,1c0,0.4-0.3,0.7-0.9,0.7H9.4c-0.6,0.6-1.4,1.2-2.2,1.8c2.5,0,4.7-0.1,6.3-0.2c-0.3-0.2-0.6-0.5-1-0.8
	c-0.2-0.2-0.2-0.5,0.2-0.4c1.4,0.3,2.4,0.6,3.3,1.2c1,0.8,0.5,2.6-0.7,1.5c-0.4-0.4-0.7-0.7-1-0.9c-3.4,0.7-8,0.9-10.3,1
	c-0.5,0-0.6-0.2-1.3-1.5c1.1,0,2.2,0.1,3.2,0.1C6.4,14.4,6.9,13.8,7.3,13.2z M12.9,9.5V8.9H6.3C6.1,9.5,5.4,9.6,4.8,9.5V5.4l1.3,0.3
	c0.2,0,0.3,0.2,0.4,0.3H12c0.4,0,0.6-0.2,0.9-0.6l1.4,0.4c0.8,0.3,0.3,0.8,0.3,1.2v1.4C14.5,9.4,13.8,9.7,12.9,9.5z M12.9,7.9V7H6.4
	v1H12.9z"/>
<path class="st0" d="M26.1,15.8c0.4,1.6,0.7,2.6,0.6,3.6c0,1.6-0.8,2.3-1.5,2.3c-0.6,0-1.1-0.5-0.8-1.4c0.3-1.1,1-3,0.9-4
	c-0.1-0.7-1-1-2.2-1.1c-0.3,0-0.3-0.5,0-0.5c1.2-0.1,1.5-0.3,1.9-1.1c0.7-1.9,1.9-6,2.5-8.6c0.1-0.4,0.6-0.3,0.5,0.1
	C26.6,12,25.9,14.7,26.1,15.8z M23.2,6.6c-0.2-0.3,0-0.5,0.3-0.4c0.9,0.3,1.7,0.6,2.2,1.2c1,1-0.2,2.8-1.1,1.5
	C24,8,23.6,7.2,23.2,6.6z M24.4,1.5c-0.2-0.3,0-0.5,0.3-0.4c0.9,0.3,1.7,0.6,2.2,1.2c1,1.1-0.1,2.7-1,1.6
	C25.2,2.9,24.8,2.2,24.4,1.5z M29.5,9c-0.3,0.6-1,2-1.9,2.8c-0.3,0.3-0.4,0-0.4-0.2c0.4-1.1,0.8-2.3,1.1-3.7l0.8,0.4
	C29.6,8.6,29.8,8.6,29.5,9z M29,6.5c0.7-1,1.2-1.7,2.2-4.2L32,2.9c0.3,0.2,0.3,0.3,0.1,0.6c-0.6,0.8-1.2,1.8-2.3,2.9
	c0.6-0.1,1.2-0.2,1.7-0.3c-0.1-0.4-0.2-0.7-0.3-0.9c-0.1-0.2,0.1-0.4,0.3-0.2c0.4,0.4,1,0.8,1.3,1.7c0.4,1.1-0.7,1.8-1,0.5l-0.1-0.5
	c-0.2,0.1-0.5,0.2-0.7,0.3v4c0,0.8-0.6,1-1.3,0.9V7.4c-0.3,0.1-0.6,0.2-1,0.3c-0.5,0.1-0.5-0.1-1.1-1.1C28.2,6.6,28.6,6.5,29,6.5z
	 M28,2.7c-0.1-0.2,0.1-0.3,0.3-0.2c0.2,0.1,0.5,0.2,0.8,0.4C29.5,2,29.7,1.5,30,0.3l0.8,0.6c0.4,0.2,0.4,0.3,0.2,0.6
	c-0.4,0.5-0.7,1.1-1.5,1.8c0.2,0.1,0.3,0.3,0.4,0.5c0.4,0.8-0.4,1.8-0.9,0.8C28.8,4.2,28.2,3.1,28,2.7z M41.2,18.2
	c0-0.1-0.9,3.1-2.6,3.8c-0.5,0.2-0.9,0.1-1.3-0.2c-0.3-0.2-1-0.7-1.9-1.1c-0.2-0.1-0.2-0.4,0.1-0.4c2.3,0.2,2.5,0.1,3.1-0.7
	c0.2-0.4,0.5-0.8,0.7-1.5h-9c-0.2,0.3-0.4,0.6-0.7,0.6c-0.5,0.2-1,0-1.4-0.1l1.7-4.8l1.1,0.4c0.2,0.1,0.4,0.2,0.4,0.4h7.3v-1.3h-9.6
	c-0.3,0-0.4-0.4-0.7-1.1h9.4c0.4,0,0.6-0.2,0.9-0.6l1.4,0.5c0.9,0.3,0.3,0.8,0.3,1.3v1.7c0,1-0.9,1.2-1.7,1.1v-0.4h-7.7L30.7,17h8.2
	c0.2,0,0.5-0.1,0.8-0.5l1.1,0.5C41.8,17.5,41.2,18.1,41.2,18.2z M32.9,9.8c0.3,1.2-0.8,1.8-1.1,0.6c-0.2-0.7-0.4-1.8-0.5-2.3
	c-0.1-0.3,0.2-0.4,0.3-0.2C32.2,8.5,32.6,8.9,32.9,9.8z M32.2,2.6h2.4c-0.1-0.1-0.2-0.2-0.3-0.4c-0.3-0.5-0.6-1.2-0.8-1.5
	c-0.1-0.2,0-0.4,0.2-0.3c0.9,0.3,1.4,0.6,1.7,1c0.3,0.4,0.2,1-0.1,1.2h0.6c0.4,0,0.6-0.2,0.8-0.6c0.4,0.4,0.7,0.6,0.7,0.9
	c0,0.5-0.3,0.7-0.9,0.7H33C32.6,3.6,32.6,3.4,32.2,2.6z M33.3,5.3c-0.3,0-0.3-0.2-0.6-1h3.3c0.3,0,0.5-0.2,0.8-0.6
	c0.4,0.4,0.6,0.7,0.6,0.9c0,0.5-0.4,0.6-0.9,0.6H33.3z M38.3,6.5c0.7-0.9,1.5-2,2.5-4.3l0.7,0.6c0.4,0.3,0.4,0.4,0.2,0.7
	c-0.6,0.7-1.4,1.9-2.4,2.8C39.9,6.3,40.5,6.2,41,6c-0.1-0.2-0.2-0.5-0.2-0.6c-0.2-0.3,0.1-0.4,0.3-0.3c0.6,0.5,1,0.8,1.4,1.6
	c0.5,1-0.5,1.9-1,0.7l-0.3-0.8c-0.2,0.1-0.3,0.2-0.5,0.2v3.9c0,0.8-0.6,1-1.2,0.9V7.3c-0.4,0.1-0.8,0.3-1.3,0.4
	c-0.4,0.1-0.5-0.1-1.1-0.9C37,6.9,36.8,7,36.5,7h-3.1c-0.3,0-0.3-0.2-0.6-0.9H36c0.3,0,0.5-0.2,0.8-0.6c0.4,0.4,0.6,0.6,0.6,0.9
	c0,0.1,0,0.2-0.1,0.3C37.7,6.6,38,6.6,38.3,6.5z M35.9,11.7v-0.8h-1.5c-0.1,0.8-0.5,1-1.2,0.9V7.5l0.9,0.2c0.2,0,0.3,0.2,0.3,0.2
	h0.7c0.3,0,0.5-0.1,0.7-0.5l1,0.4c0.7,0.2,0.2,0.7,0.2,1.1v1.8C37.1,11.6,36.7,11.9,35.9,11.7z M35.9,10V8.8h-1.5V10H35.9z M39,8.3
	c0.3,0.1,0.4,0.2,0.3,0.5c-0.3,0.7-0.8,1.8-1.6,2.8c-0.2,0.3-0.5,0.1-0.4-0.2c0.3-1.1,0.6-2.1,0.8-3.6L39,8.3z M37.5,2.8
	c-0.1-0.2,0.1-0.4,0.2-0.3C38,2.7,38.3,2.9,38.5,3c0.4-1,0.6-1.5,1-2.8l0.9,0.6c0.3,0.2,0.4,0.3,0.2,0.6C40.2,2,39.7,2.7,39,3.4
	c0.2,0.1,0.3,0.3,0.4,0.5c0.4,0.8-0.4,1.8-0.9,0.8C38.1,4,37.7,3.1,37.5,2.8z M41.5,10.5c-0.3-1-0.4-1.8-0.5-2.3
	c0-0.2,0.1-0.4,0.3-0.2c0.5,0.4,1.1,1.2,1.4,2C43,11,41.9,12,41.5,10.5z"/>
<path class="st0" d="M51.5,11.5v9.3c0,0.9-0.7,1.4-1.6,1.1v-9.8c-0.6,0.2-1.2,0.5-1.8,0.7c-0.6,0.2-0.7,0-1.6-1.3l1.9-0.3
	c1.3-2,2.8-4.5,3.8-7.2L53,4.7c0.5,0.4,0.6,0.5,0.4,0.7c-0.9,1.3-2.6,3.9-4.1,5.6c1.2-0.2,2.2-0.4,3.1-0.5c-0.2-0.7-0.3-1.3-0.4-1.7
	c0-0.3,0.2-0.5,0.4-0.3c0.7,0.8,1.5,1.7,1.8,2.6c0.6,1.5-0.8,2.6-1.4,1c-0.1-0.3-0.2-0.7-0.3-1C52.2,11.2,51.8,11.4,51.5,11.5z
	 M49.1,14.8c-0.5,1.6-1.3,4.1-2,5.5c-0.2,0.3-0.5,0.1-0.4-0.2c0.3-1.7,0.7-4.4,1-6.5l1,0.4C49.2,14.2,49.3,14.3,49.1,14.8z
	 M46.9,4.5C46.8,4.2,47,4,47.2,4.1c0.4,0.3,0.9,0.6,1.3,1c0.5-1.2,1.1-3,1.6-4.9l0.9,0.5c0.6,0.4,0.7,0.5,0.5,0.8
	c-0.8,1.5-1.8,2.9-2.6,4c0.2,0.2,0.4,0.4,0.6,0.6c1,1.3-0.3,2.9-1.2,1.2C47.8,6.4,47.2,5.1,46.9,4.5z M52.7,17.4
	c-0.2-1.3-0.4-2.7-0.5-3.6c0-0.3,0.2-0.5,0.4-0.2c0.6,0.9,1.4,2,1.6,3C54.5,18.1,53,19,52.7,17.4z M56.3,15.7
	c-0.1,1.2-0.2,2.5-0.7,3.6c-0.8,1.9-2.5,0.8-1.7-0.3c1-1.5,1.6-2.5,2-3.3C55.9,15.4,56.3,15.5,56.3,15.7z M54.9,14V2.1l1.3,0.3
	c0.2,0,0.3,0.2,0.3,0.3v0h1.7c0.3-0.8,0.4-1.5,0.7-2.5l1.1,0.6c0.5,0.3,0.6,0.4,0.3,0.7c-0.3,0.3-0.7,0.8-1.1,1.2h3.8
	c0.4,0,0.6-0.2,0.8-0.5l1.4,0.5C65.8,3,65.3,3.5,65.3,4v9c0,0.7-0.8,1.1-1.6,0.9V13h-7.2C56.5,13.7,55.7,14.1,54.9,14z M56.5,3.9
	v7.9h7.2V3.9H56.5z M56.9,9.2c0.5-0.7,1-1.5,1.5-2.4c-0.4-0.4-0.8-0.9-1.2-1.3c-0.3-0.3,0-0.6,0.3-0.4c0.5,0.3,0.9,0.6,1.4,0.9
	c0.4-0.7,0.7-1.4,0.9-1.9l0.8,0.6c0.5,0.4,0.5,0.5,0.2,0.8c-0.3,0.4-0.6,0.9-1,1.2c0.3,0.2,0.6,0.5,0.9,0.7c0.4-0.6,0.8-1.3,1.2-1.9
	l0.8,0.7c0.4,0.4,0.5,0.5,0.2,0.8c-0.3,0.4-0.7,0.8-1.1,1.2c0.5,0.5,0.9,0.9,1.1,1.2c0.9,1.2,0,2.4-1,1.2c-0.4-0.5-0.8-0.9-1.1-1.4
	c-0.7,0.7-1.5,1.4-2.4,2c-0.3,0.2-0.5-0.1-0.3-0.3c0.6-0.7,1.3-1.6,1.9-2.4c-0.3-0.3-0.6-0.6-0.9-0.9c-0.7,0.8-1.3,1.4-1.9,1.9
	C56.9,9.8,56.7,9.4,56.9,9.2z M63.8,21.1c-0.8,0.4-2.6,0.4-3.6,0.4c-2.9-0.1-3-0.4-3-3.2v-3.9l1.3,0.3c0.2,0,0.3,0.1,0.3,0.3v3.8
	c0,0.8,0.1,0.9,0.8,1c0.7,0.1,1.6,0.1,2.5-0.1c0.4-0.1,0.5-0.4,0.6-1l0.2-0.9c0-0.2,0.3-0.2,0.3,0c0.2,0.9,0.3,1.5,0.7,1.8
	C64.8,20.3,64.5,20.9,63.8,21.1z M62.1,15.3c0.8,1.2-0.6,2.6-1.2,1.2c-0.4-1-0.7-1.8-1-2.6c-0.1-0.3,0-0.6,0.3-0.4
	C61.2,14.1,61.7,14.6,62.1,15.3z M65.2,19c-0.5-1.2-0.7-2.2-1.1-3.2c-0.1-0.4,0.1-0.5,0.4-0.3c0.9,0.9,1.7,1.6,2.1,2.6
	C67.1,19.6,65.7,20.6,65.2,19z"/>
<path class="st0" d="M74.1,7.6c-0.8,0.9-2.1,2.2-3.6,3.2c-0.3,0.2-0.5-0.2-0.3-0.4c1.1-1.2,2.1-2.7,2.9-4.2L74,6.9
	C74.4,7.2,74.4,7.3,74.1,7.6z M75.1,11.1c-0.9-0.6-1.3-0.8-2.2-1.2c-0.2-0.1-0.2-0.4,0.1-0.4c0.4,0,1.8,0.1,1.9,0
	c0.1,0,0.1-0.1,0.1-0.2V5.8h-3.8c-0.4,0-0.5-0.2-0.9-1.2h4.4V0.3L76,0.6c0.2,0,0.3,0.2,0.3,0.3V2h1.8c0.4,0,0.6-0.2,1-0.7
	c0.4,0.5,0.8,0.7,0.8,1.1c0,0.5-0.4,0.8-1.1,0.8h-2.5v1.4h3.2c0.4,0,0.6-0.2,1-0.7C81,4.3,81.4,4.6,81.4,5c0,0.6-0.5,0.8-1.2,0.8
	h-3.5v4.4C76.7,11,75.8,11.6,75.1,11.1z M85.9,13.1v7.7c0,0.8-0.9,1.2-1.8,1.1v-1.4h-8.2v0.3c0,1-1,1.4-1.8,1.2V11.3l1.5,0.3
	c0.3,0,0.4,0.2,0.4,0.4h7.3c0.4,0,0.6-0.2,0.9-0.5l1.5,0.4C86.4,12.1,85.9,12.6,85.9,13.1z M75.9,13v1.3h8.2V13H75.9z M75.9,16.8
	h8.2v-1.3h-8.2V16.8z M84.1,19.3V18h-8.2v1.3H84.1z M77.7,6.7C78.5,7,79.3,7.4,79.8,8c0.8,0.8-0.2,2.5-1,1.2c-0.6-0.9-1-1.7-1.4-2.1
	C77.2,6.8,77.4,6.6,77.7,6.7z M89.6,10.4l-0.8,0.5c-0.8,0.5-0.9,0.5-2.1-0.2c-0.9-0.6-1.7-1.2-2.4-2.1c-1.5,1.4-3.9,2.7-6.6,3.1
	c-0.3,0-0.4-0.3-0.2-0.5c2.4-1,4.4-2.1,5.9-3.7c-0.8-1.3-1.2-3-1.5-4.5h-0.7c-0.3,0-0.5-0.2-0.9-1.2h5.4c0.3,0,0.6,0,0.9-0.4
	l0.7,0.7c0.5,0.5,0.5,0.8,0.4,1.1c-0.6,1.4-1.4,3.2-2.5,4.4c1.3,1.2,2.9,2,4.3,2.5C89.8,10.2,89.8,10.3,89.6,10.4z M82.8,3
	c0.3,1.1,0.8,2.4,1.5,3.5c0.7-1,1.3-2.4,1.7-3.5H82.8z"/>
<path class="st0" d="M97.3,8.4c0,2.9-0.3,6.6-1,8.8c-0.6,1.7-1.4,3.3-2.6,4.3c-0.2,0.2-0.5,0-0.4-0.3c1-1.8,1.6-4.2,1.9-7.7
	c0.2-2.9,0.2-7,0.2-11.4l1.5,0.3c0.2,0,0.4,0.2,0.4,0.3v0h6.7c-0.1-0.1-0.2-0.3-0.4-0.5c-0.5-0.8-0.8-1.3-1.2-1.9
	c-0.2-0.3,0-0.5,0.3-0.4c1,0.4,1.8,0.6,2.3,1.2c0.4,0.5,0.4,1.2,0,1.6h5.9c0.4,0,0.6-0.2,1-0.7c0.4,0.5,0.8,0.8,0.8,1.2
	c0,0.6-0.5,0.8-1.2,0.8H97.3V8.4z M101.5,8.6v12.2c0,1.1-0.9,1.4-1.7,1.2V11.3c-0.6,0.9-1.4,1.9-2.2,2.5c-0.2,0.1-0.5-0.1-0.3-0.4
	c0.9-1.4,1.6-2.9,2.3-4.4c0.7-1.6,1.3-3.1,1.8-4.8l1.2,0.8c0.4,0.2,0.4,0.4,0.3,0.7C102.6,6.6,102.1,7.5,101.5,8.6z M113.2,9
	c0,0.6-0.5,0.8-1.1,0.8h-1.9v10.6c0,1.2-1,1.9-1.9,1.2c-0.8-0.8-1.8-1.2-2.5-1.5c-0.2-0.1-0.2-0.4,0-0.4c0.5,0,2.3,0.1,2.4,0
	c0.1,0,0.1-0.1,0.1-0.2V9.8H103c-0.3,0-0.4-0.2-0.8-1.3h6.2V4.7l1.4,0.3c0.3,0.1,0.3,0.3,0.3,0.4v3.2h1.1c0.4,0,0.7-0.3,1-0.8
	C112.8,8.3,113.2,8.6,113.2,9z M104.7,15.4c-0.6-1.3-1-2.5-1.4-3.5c-0.1-0.2,0.2-0.4,0.4-0.2c1,0.8,2.1,1.7,2.6,2.7
	C107.1,15.9,105.6,17.2,104.7,15.4z"/>
<path class="st1" d="M121.2,5.7c0,0.9-0.1,2-0.1,3.1h1c0.4,0,0.6-0.2,0.9-0.5l1.3,0.5c0.9,0.3,0.4,1,0.4,1.4c0,2.6-0.2,4.4-0.3,6
	c-0.3,2.8-0.8,4.6-1.9,5.1c-0.3,0.2-0.7,0.3-1.1-0.1c-0.4-0.4-1.1-0.9-1.6-1.2c-0.2-0.1-0.3-0.4,0.1-0.4c2.1,0.1,2.1,0.1,2.7-2.7
	c0.3-1.5,0.4-4.7,0.5-7H121c0,0.6-0.1,1.1-0.1,1.5c-0.5,4.6-1.5,8.6-3.8,10.3c-0.2,0.2-0.5,0-0.4-0.3c1.1-2.2,1.9-4.4,2.4-9.8
	c0.1-1.1,0.2-4.2,0.2-6h-1.6c-0.4,0-0.5-0.2-0.9-1.2h4.7c-0.2-0.1-0.4-0.4-0.6-0.9c-0.3-1.1-0.7-2.3-0.9-2.7
	c-0.1-0.2,0.1-0.5,0.4-0.3c0.7,0.5,1.7,1.3,2.1,2.1c0.4,0.8,0.1,1.6-0.3,1.9h2c0.4,0,0.6-0.2,1-0.7c0.5,0.5,0.9,0.8,0.9,1.1
	c0,0.6-0.4,0.8-1.2,0.8H121.2z M136.9,20.6c-1.5,0.8-1.5,0.9-2,0.4c-1.3-1.3-2.7-3.1-3.7-5.4c-0.8-1.9-1.3-4.1-1.6-6.3
	c-0.3,0.1-0.6,0.1-1,0.2v9.2c0.9-0.4,1.7-0.8,2.7-1.3c0.4-0.2,0.5,0.2,0.3,0.4c-1.2,1-3.2,2.4-4.6,3.4c-0.7,0.5-0.7,0.4-2-1
	c0.7-0.3,1.4-0.5,1.9-0.7V8.4l1.4,0.3c0.2,0,0.3,0.1,0.3,0.2c2.1-0.8,3.6-1.7,5-2.7l0.8,0.9c0.3,0.4,0.3,0.5,0,0.6
	c-0.5,0.2-2.1,0.9-3.9,1.3c0.2,1.2,0.5,2.7,1.1,4.1c1-0.8,1.8-1.7,2.8-3l0.9,1c0.4,0.4,0.4,0.5-0.1,0.8c-0.7,0.5-1.9,1.2-3.4,1.9
	l0.2,0.4c1.1,2.3,2.4,4.1,4.8,6C137.1,20.5,137,20.6,136.9,20.6z M125.4,8.6c1.4-2.7,2.4-5.9,3-8.4l1.1,0.6c0.5,0.3,0.5,0.3,0.3,0.8
	c-0.2,0.6-0.6,1.5-1.1,2.4h5.4c0.4,0,0.7-0.2,1-0.7c0.5,0.5,0.8,0.8,0.8,1.1c0,0.5-0.4,0.8-1.2,0.8h-6.7c-0.7,1.3-1.5,2.6-2.4,3.5
	C125.5,9.2,125.2,9,125.4,8.6z"/>
<path class="st1" d="M160.4,14.2c-1.4,0.9-1.4,1.1-2.3,0.7c-0.6-0.3-1.4-0.8-2.5-1.7c-1.2-1-2.4-2.3-3.3-3.6h-3.5
	c-0.7,1.2-1.6,2.4-2.7,3.4h6.6c0.4,0,0.7-0.1,1-0.5l1.2,0.5c1.2,0.5,0.6,0.9,0.5,1.5c-0.2,2.7-0.4,6.1-2,7.3c-0.5,0.4-0.9,0.4-1.3,0
	c-0.5-0.4-1.4-0.8-2.3-1.2c-0.2-0.1-0.2-0.4,0.1-0.4c2.5,0,2.5,0,2.9-0.7c0.5-1,0.7-2.9,0.9-5.2h-3.8c-0.5,2.6-1.9,4.7-3.2,5.8
	c-1.2,1-2.8,1.6-4.9,1.9c-0.4,0-0.4-0.4-0.1-0.5c1.9-0.7,3.2-1.6,4.2-2.6c1-1,1.9-2.8,2.3-4.7H146c-0.3,0-0.4-0.1-0.6-0.6
	c-1.3,1-2.8,1.8-4.6,2.3c-0.4,0.1-0.4-0.3-0.2-0.4c2.5-1.5,4.7-3.2,6.4-6h-5.4c-0.4,0-0.5-0.3-1-1.3h7.1c0.3-0.6,0.5-1.2,0.7-1.8
	h-5.2c-0.4,0-0.5-0.2-1-1.2h6.5c0.4-1.5,0.6-3.1,0.8-5.1l1.2,0.4c0.6,0.2,0.6,0.3,0.5,0.9c-0.2,1.3-0.3,2.5-0.6,3.7h1.6
	c0.8-1.1,2-3.3,2.6-4.7l1,0.8c0.4,0.4,0.4,0.5,0.2,0.8c-0.5,0.7-1.8,2.2-2.7,3h2.8c0.4,0,0.6-0.2,1-0.7c0.5,0.5,0.8,0.8,0.8,1.2
	c0,0.5-0.5,0.8-1.2,0.8h-6.5c-0.2,0.6-0.4,1.2-0.7,1.8h8.6c0.4,0,0.6-0.2,1-0.7c0.5,0.5,0.8,0.8,0.8,1.2c0,0.5-0.4,0.8-1.2,0.8h-5.2
	c0.9,1,2.1,1.9,3.5,2.7c1,0.6,2.1,1.1,3.3,1.5C160.6,14,160.6,14.1,160.4,14.2z M143.9,1.3c-0.2-0.2,0-0.5,0.3-0.4
	c1.4,0.6,2.4,1.4,2.9,2.2c0.8,1.4-0.4,2.8-1.2,1.4C145.4,3.8,144.6,2.2,143.9,1.3z"/>
<path class="st0" d="M171.5,16c-1.9,1.7-4.5,3.6-7.1,4.9c-0.4,0.2-0.5-0.3-0.2-0.5c2.2-1.8,4.6-4.1,6.3-6.3l1.1,1
	C172,15.5,171.9,15.6,171.5,16z M175,12.6v8.3c0,1.1-1.1,1.4-1.9,1.1v-9.1c-2.3,0.3-4.6,0.6-5.8,0.8c-0.8,0.1-0.9,0-1.9-1.9
	c1.3,0,3.1,0,4.9-0.1c2.1-1.5,5.5-4.4,7.4-7l1.1,1c0.4,0.4,0.5,0.5,0.1,0.8c-1.4,1.2-4.3,3.6-7.1,5.1c2.5-0.1,5-0.3,6.8-0.4
	l-1.5-1.7c-0.3-0.3,0-0.5,0.3-0.4c2.2,1.1,3.8,2,4.6,3c0.9,1.3-0.2,2.8-1.3,1.5c-0.4-0.5-0.9-1.1-1.5-1.7
	C178.2,12.1,176.7,12.3,175,12.6z M166.1,2.6c4.7-0.6,10.4-1.2,14.4-2.4l0.6,0.9c0.5,0.7,0.4,1-0.2,1.1c-1.8,0.3-4.3,0.6-6.9,0.8
	l0.4,0.3c0.4,0.3,0.4,0.4,0,0.7c-0.8,0.7-2.2,1.8-3.4,2.5c0.5,0.3,0.9,0.6,1.2,0.9c1.2,1.3-0.2,2.7-1.2,1.6
	c-0.9-0.9-2.1-2.3-3.1-3.3c-0.2-0.2-0.1-0.5,0.3-0.4c0.9,0.3,1.7,0.6,2.3,0.9c0.6-0.7,1.6-1.9,2.3-3.1c-2.3,0.1-4.6,0.2-6.5,0.1
	C165.8,3.2,165.8,2.7,166.1,2.6z M180.9,19.4c-1.3-1.4-2.8-3.1-4.4-4.7c-0.3-0.3,0-0.5,0.3-0.4c2.8,1.3,4.5,2.6,5.2,3.5
	C183.3,19.2,182.3,20.9,180.9,19.4z"/>
<path class="st0" d="M192.3,11.7v8.9c0,0.9-0.7,1.4-1.7,1.2v-9.5c-0.6,0.2-1.3,0.5-1.9,0.7s-0.7,0.1-1.6-1.4
	c0.7-0.1,1.3-0.2,1.9-0.3c1.5-2,2.6-4.2,3.9-7.3l1,0.7c0.4,0.3,0.5,0.4,0.3,0.8c-0.9,1.5-2.7,4.1-4.2,5.7c1.2-0.2,2.3-0.4,3.1-0.6
	l-0.4-1.6c-0.1-0.3,0.2-0.5,0.4-0.3c0.8,0.9,1.5,1.8,1.9,2.5c0.7,1.6-0.8,2.6-1.3,1.2c-0.1-0.4-0.2-0.8-0.4-1.2L192.3,11.7z
	 M189.9,15.1c-0.4,1.3-1.2,3.9-2,5.3c-0.2,0.3-0.5,0.1-0.4-0.2c0.3-1.5,0.7-4.2,1-6.4l1,0.5C190,14.5,190.1,14.5,189.9,15.1z
	 M187.8,4.9c-0.1-0.3,0-0.6,0.3-0.4c0.4,0.3,0.7,0.5,1,0.8c0.6-1.3,1.2-3.1,1.8-4.9l0.9,0.6c0.6,0.4,0.6,0.5,0.4,0.8
	c-0.8,1.3-1.7,2.8-2.6,3.9c0.2,0.3,0.5,0.6,0.7,0.9c0.8,1.2-0.4,2.8-1.2,1.3C188.6,7,188.2,5.7,187.8,4.9z M207,21
	c-0.6,0.3-1.5,0.5-2.8,0.5c-2.8,0-2.9-0.4-2.9-3.7V10l-1.8,0.4v3c0,2.1-0.3,3.9-1.1,5c-1.4,2.1-3.3,3.1-5.3,3.5
	c-0.4,0.1-0.4-0.4-0.1-0.5c1.7-0.9,3.4-2.2,4.1-3.9c0.4-0.8,0.6-2,0.6-3.2c0-1.1,0-2.3,0-3.6c-0.4,0.1-0.8,0.2-1.2,0.2
	c-0.6,0.1-0.7,0-1.5-1.6l1.9-0.1h0c0.7-1,1.6-2.9,2.2-4.4h-3.5c-0.3,0-0.4-0.3-0.8-1.2h5.9c-0.2-0.1-0.3-0.2-0.5-0.5
	c-0.6-0.9-1-1.7-1.5-2.5c-0.2-0.3,0-0.5,0.2-0.4c1.1,0.5,2.1,1,2.5,1.6c0.6,0.7,0.4,1.6-0.1,1.8h3.5c0.4,0,0.6-0.2,1-0.7
	c0.5,0.5,0.8,0.7,0.8,1.1c0,0.6-0.5,0.8-1.2,0.8H201c-0.7,1.2-2,3.2-3.1,4.3c2-0.1,3.8-0.3,5.4-0.5l-1-1.8c-0.2-0.3,0.1-0.5,0.3-0.3
	c1.8,1.2,2.7,1.9,3.2,2.6c0.8,1.1-0.2,2.9-1.4,1.2c-0.2-0.3-0.4-0.7-0.7-1.1L203,9.6v8.8c0,1,0.1,1.2,1,1.2c1.3,0,1.6-0.1,1.7-0.9
	L206,17c0-0.2,0.3-0.2,0.3,0l0.3,1.8c0.1,0.4,0.2,0.6,0.5,1C207.5,20.2,207.4,20.8,207,21z M193.4,13.9c0.7,1.1,1.4,2.1,1.7,3.1
	c0.5,1.7-1.2,2.6-1.5,0.9c-0.2-1.1-0.4-2.8-0.6-3.7C193,13.8,193.2,13.6,193.4,13.9z"/>
</svg>
