<?xml version="1.0" encoding="utf-8"?>
<!-- Generator: Adobe Illustrator 24.0.2, SVG Export Plug-In . SVG Version: 6.00 Build 0)  -->
<svg version="1.1" id="圖層_1" xmlns="http://www.w3.org/2000/svg" xmlns:xlink="http://www.w3.org/1999/xlink" x="0px" y="0px"
	 viewBox="0 0 210.9 46" style="enable-background:new 0 0 210.9 46;" xml:space="preserve">
<style type="text/css">
	.st0{fill:#E25600;}
	.st1{fill:#FFFFFF;}
	.st2{fill:#BFBFBF;}
</style>
<g>
	<path class="st0" d="M1.6,31.1c0.5-0.6,1.4-1.3,1.9-2.6c0.1-0.3,0.4-0.2,0.4,0c0,0.2,0,0.4,0,0.6h14.2c0.4,0,0.7-0.1,1.1-0.5
		l0.9,0.9c0.4,0.4,0.5,0.6,0.2,0.8c-0.7,0.6-1.5,1.4-2.1,1.9c-0.2,0.2-0.5,0-0.4-0.3c0.2-0.4,0.6-1.2,0.7-1.6H3.8
		c-0.1,0.5-0.2,0.9-0.4,1.3C2.5,33.6,0.5,32.3,1.6,31.1z M20.5,39.8c0,0.5-0.4,0.7-1.1,0.7H2.4c-0.4,0-0.5-0.2-0.9-1.2h8.6v-1.2h-5
		c-0.4,0-0.4-0.2-0.8-1.1h5.8v-1.6l1.5,0.3c0.2,0,0.4,0.2,0.4,0.3v1h3.6c0.4,0,0.6-0.1,0.9-0.6c0.4,0.5,0.7,0.7,0.7,1
		c0,0.5-0.3,0.7-1,0.7H12v1.2h6.7c0.4,0,0.6-0.2,1-0.7C20.2,39.2,20.5,39.5,20.5,39.8z M2.3,20.9h7.9v-1.2l1.5,0.3
		c0.2,0,0.4,0.2,0.4,0.3v0.6h6c0.4,0,0.6-0.2,0.9-0.6c0.4,0.4,0.8,0.7,0.8,1.1c0,0.5-0.4,0.7-1.1,0.7H12v1.1h3.5
		c0.4,0,0.5-0.1,0.9-0.6c0.4,0.4,0.8,0.7,0.8,1c0,0.5-0.4,0.7-1.1,0.7H5.5c-0.4,0-0.5-0.2-0.8-1.1h5.5V22h-7
		C2.8,22,2.7,21.8,2.3,20.9z M8.6,32.4H4.7c-0.4,0-0.4-0.2-0.8-1.1h11.5c0.4,0,0.5-0.1,0.8-0.6c0.4,0.5,0.7,0.7,0.7,1
		c0,0.4-0.3,0.7-0.9,0.7h-5.4c-0.6,0.6-1.4,1.2-2.2,1.8c2.5,0,4.7-0.1,6.3-0.2c-0.3-0.2-0.6-0.5-1-0.8c-0.2-0.2-0.2-0.5,0.2-0.4
		c1.4,0.3,2.4,0.6,3.3,1.2c1,0.8,0.5,2.6-0.7,1.5c-0.4-0.4-0.7-0.7-1-0.9c-3.4,0.7-8,0.9-10.3,1c-0.5,0-0.6-0.2-1.3-1.5
		c1.1,0,2.2,0.1,3.2,0.1C7.7,33.6,8.1,33.1,8.6,32.4z M14.2,28.7v-0.5H7.6c-0.2,0.6-0.9,0.7-1.6,0.6v-4.2l1.3,0.3
		c0.2,0,0.3,0.2,0.4,0.3h5.5c0.4,0,0.6-0.2,0.9-0.6l1.4,0.4c0.8,0.3,0.3,0.8,0.3,1.2v1.4C15.8,28.6,15.1,28.9,14.2,28.7z M14.2,27.2
		v-1H7.7v1H14.2z"/>
	<path class="st0" d="M27.4,35.1c0.4,1.6,0.7,2.6,0.6,3.6c0,1.6-0.8,2.3-1.5,2.3c-0.6,0-1.1-0.5-0.8-1.4c0.3-1.1,1-3,0.9-4
		c-0.1-0.7-1-1-2.2-1.1c-0.3,0-0.3-0.5,0-0.5c1.2-0.1,1.5-0.3,1.9-1.1c0.7-1.9,1.9-6,2.5-8.6c0.1-0.4,0.6-0.3,0.5,0.1
		C27.9,31.3,27.2,34,27.4,35.1z M24.5,25.9c-0.2-0.3,0-0.5,0.3-0.4c0.9,0.3,1.7,0.6,2.2,1.2c1,1-0.2,2.8-1.1,1.5
		C25.2,27.3,24.8,26.5,24.5,25.9z M25.6,20.8c-0.2-0.3,0-0.5,0.3-0.4c0.9,0.3,1.7,0.6,2.2,1.2c1,1.1-0.1,2.7-1,1.6
		C26.5,22.2,26.1,21.5,25.6,20.8z M30.8,28.3c-0.3,0.6-1,2-1.9,2.8c-0.3,0.3-0.4,0-0.4-0.2c0.4-1.1,0.8-2.3,1.1-3.7l0.8,0.4
		C30.9,27.8,31,27.9,30.8,28.3z M30.3,25.8c0.7-1,1.2-1.7,2.2-4.2l0.8,0.6c0.3,0.2,0.3,0.3,0.1,0.6c-0.6,0.8-1.2,1.8-2.3,2.9
		c0.6-0.1,1.2-0.2,1.7-0.3c-0.1-0.4-0.2-0.7-0.3-0.9c-0.1-0.2,0.1-0.4,0.3-0.2c0.4,0.4,1,0.8,1.3,1.7c0.4,1.1-0.7,1.8-1,0.5L33.1,26
		c-0.2,0.1-0.5,0.2-0.7,0.3v4c0,0.8-0.6,1-1.3,0.9v-4.4c-0.3,0.1-0.6,0.2-1,0.3c-0.5,0.1-0.5-0.1-1.1-1.1
		C29.5,25.9,29.9,25.8,30.3,25.8z M29.3,22c-0.1-0.2,0.1-0.3,0.3-0.2c0.2,0.1,0.5,0.2,0.8,0.4c0.4-0.8,0.6-1.4,0.9-2.6l0.8,0.6
		c0.4,0.2,0.4,0.3,0.2,0.6c-0.4,0.5-0.7,1.1-1.5,1.8c0.2,0.1,0.3,0.3,0.4,0.5c0.4,0.8-0.4,1.8-0.9,0.8C30.1,23.5,29.5,22.3,29.3,22z
		 M42.5,37.5c0-0.1-0.9,3.1-2.6,3.8c-0.5,0.2-0.9,0.1-1.3-0.2c-0.3-0.2-1-0.7-1.9-1.1c-0.2-0.1-0.2-0.4,0.1-0.4
		c2.3,0.2,2.5,0.1,3.1-0.7c0.2-0.4,0.5-0.8,0.7-1.5h-9c-0.2,0.3-0.4,0.6-0.7,0.6c-0.5,0.2-1,0-1.4-0.1l1.7-4.8l1.1,0.4
		c0.2,0.1,0.4,0.2,0.4,0.4H40v-1.3h-9.6c-0.3,0-0.4-0.4-0.7-1.1h9.4c0.4,0,0.6-0.2,0.9-0.6l1.4,0.5c0.9,0.3,0.3,0.8,0.3,1.3v1.7
		c0,1-0.9,1.2-1.7,1.1v-0.4h-7.7L32,36.3h8.2c0.2,0,0.5-0.1,0.8-0.5l1.1,0.5C43.1,36.8,42.5,37.4,42.5,37.5z M34.2,29.1
		c0.3,1.2-0.8,1.8-1.1,0.6c-0.2-0.7-0.4-1.8-0.5-2.3c-0.1-0.3,0.2-0.4,0.3-0.2C33.5,27.8,33.9,28.2,34.2,29.1z M33.5,21.8H36
		c-0.1-0.1-0.2-0.2-0.3-0.4C35.4,21,35,20.3,34.9,20c-0.1-0.2,0-0.4,0.2-0.3c0.9,0.3,1.4,0.6,1.7,1c0.3,0.4,0.2,1-0.1,1.2h0.6
		c0.4,0,0.6-0.2,0.8-0.6c0.4,0.4,0.7,0.6,0.7,0.9c0,0.5-0.3,0.7-0.9,0.7h-3.5C33.9,22.9,33.8,22.7,33.5,21.8z M34.6,24.6
		c-0.3,0-0.3-0.2-0.6-1h3.3c0.3,0,0.5-0.2,0.8-0.6c0.4,0.4,0.6,0.7,0.6,0.9c0,0.5-0.4,0.6-0.9,0.6H34.6z M39.6,25.8
		c0.7-0.9,1.5-2,2.5-4.3l0.7,0.6c0.4,0.3,0.4,0.4,0.2,0.7c-0.6,0.7-1.4,1.9-2.4,2.8c0.7-0.1,1.3-0.2,1.8-0.4
		c-0.1-0.2-0.2-0.5-0.2-0.6c-0.2-0.3,0.1-0.4,0.3-0.3c0.6,0.5,1,0.8,1.4,1.6c0.5,1-0.5,1.9-1,0.7l-0.3-0.8c-0.2,0.1-0.3,0.2-0.5,0.2
		v3.9c0,0.8-0.6,1-1.2,0.9v-4.4c-0.4,0.1-0.8,0.3-1.3,0.4c-0.4,0.1-0.5-0.1-1.1-0.9c-0.2,0.1-0.4,0.1-0.6,0.1h-3.1
		c-0.3,0-0.3-0.2-0.6-0.9h3.2c0.3,0,0.5-0.2,0.8-0.6c0.4,0.4,0.6,0.6,0.6,0.9c0,0.1,0,0.2-0.1,0.3C39,25.9,39.3,25.8,39.6,25.8z
		 M37.2,31v-0.8h-1.5c-0.1,0.8-0.5,1-1.2,0.9v-4.4l0.9,0.2c0.2,0,0.3,0.2,0.3,0.2h0.7c0.3,0,0.5-0.1,0.7-0.5l1,0.4
		c0.7,0.2,0.2,0.7,0.2,1.1V30C38.4,30.9,38,31.2,37.2,31z M37.2,29.3v-1.2h-1.5v1.2H37.2z M40.3,27.6c0.3,0.1,0.4,0.2,0.3,0.5
		c-0.3,0.7-0.8,1.8-1.6,2.8c-0.2,0.3-0.5,0.1-0.4-0.2c0.3-1.1,0.6-2.1,0.8-3.6L40.3,27.6z M38.8,22.1c-0.1-0.2,0.1-0.4,0.2-0.3
		c0.3,0.2,0.6,0.4,0.8,0.5c0.4-1,0.6-1.5,1-2.8l0.9,0.6c0.3,0.2,0.4,0.3,0.2,0.6c-0.4,0.6-0.9,1.2-1.6,1.9c0.2,0.1,0.3,0.3,0.4,0.5
		c0.4,0.8-0.4,1.8-0.9,0.8C39.4,23.3,39,22.4,38.8,22.1z M42.8,29.8c-0.3-1-0.4-1.8-0.5-2.3c0-0.2,0.1-0.4,0.3-0.2
		c0.5,0.4,1.1,1.2,1.4,2C44.2,30.3,43.1,31.2,42.8,29.8z"/>
	<path class="st0" d="M52.7,30.8v9.3c0,0.9-0.7,1.4-1.6,1.1v-9.8c-0.6,0.2-1.2,0.5-1.8,0.7c-0.6,0.2-0.7,0-1.6-1.3l1.9-0.3
		c1.3-2,2.8-4.5,3.8-7.2l0.9,0.7c0.5,0.4,0.6,0.5,0.4,0.7c-0.9,1.3-2.6,3.9-4.1,5.6c1.2-0.2,2.2-0.4,3.1-0.5
		c-0.2-0.7-0.3-1.3-0.4-1.7c0-0.3,0.2-0.5,0.4-0.3c0.7,0.8,1.5,1.7,1.8,2.6c0.6,1.5-0.8,2.6-1.4,1c-0.1-0.3-0.2-0.7-0.3-1
		C53.5,30.5,53.1,30.6,52.7,30.8z M50.4,34c-0.5,1.6-1.3,4.1-2,5.5c-0.2,0.3-0.5,0.1-0.4-0.2c0.3-1.7,0.7-4.4,1-6.5l1,0.4
		C50.5,33.5,50.6,33.5,50.4,34z M48.2,23.7c-0.1-0.3,0.1-0.5,0.3-0.3c0.4,0.3,0.9,0.6,1.3,1c0.5-1.2,1.1-3,1.6-4.9l0.9,0.5
		c0.6,0.4,0.7,0.5,0.5,0.8c-0.8,1.5-1.8,2.9-2.6,4c0.2,0.2,0.4,0.4,0.6,0.6c1,1.3-0.3,2.9-1.2,1.2C49.1,25.7,48.5,24.4,48.2,23.7z
		 M54,36.7c-0.2-1.3-0.4-2.7-0.5-3.6c0-0.3,0.2-0.5,0.4-0.2c0.6,0.9,1.4,2,1.6,3C55.8,37.3,54.3,38.3,54,36.7z M57.6,35
		c-0.1,1.2-0.2,2.5-0.7,3.6c-0.8,1.9-2.5,0.8-1.7-0.3c1-1.5,1.6-2.5,2-3.3C57.2,34.7,57.6,34.8,57.6,35z M56.1,33.2V21.3l1.3,0.3
		c0.2,0,0.3,0.2,0.3,0.3v0h1.7c0.3-0.8,0.4-1.5,0.7-2.5l1.1,0.6c0.5,0.3,0.6,0.4,0.3,0.7c-0.3,0.3-0.7,0.8-1.1,1.2h3.8
		c0.4,0,0.6-0.2,0.8-0.5l1.4,0.5c0.8,0.3,0.2,0.7,0.2,1.2v9c0,0.7-0.8,1.1-1.6,0.9v-0.9h-7.2C57.7,33,57,33.4,56.1,33.2z M57.8,23.1
		v7.9H65v-7.9H57.8z M58.2,28.4c0.5-0.7,1-1.5,1.5-2.4c-0.4-0.4-0.8-0.9-1.2-1.3c-0.3-0.3,0-0.6,0.3-0.4c0.5,0.3,0.9,0.6,1.4,0.9
		c0.4-0.7,0.7-1.4,0.9-1.9l0.8,0.6c0.5,0.4,0.5,0.5,0.2,0.8c-0.3,0.4-0.6,0.9-1,1.2c0.3,0.2,0.6,0.5,0.9,0.7
		c0.4-0.6,0.8-1.3,1.2-1.9l0.8,0.7c0.4,0.4,0.5,0.5,0.2,0.8c-0.3,0.4-0.7,0.8-1.1,1.2c0.5,0.5,0.9,0.9,1.1,1.2c0.9,1.2,0,2.4-1,1.2
		c-0.4-0.5-0.8-0.9-1.1-1.4c-0.7,0.7-1.5,1.4-2.4,2c-0.3,0.2-0.5-0.1-0.3-0.3c0.6-0.7,1.3-1.6,1.9-2.4c-0.3-0.3-0.6-0.6-0.9-0.9
		c-0.7,0.8-1.3,1.4-1.9,1.9C58.2,29,58,28.7,58.2,28.4z M65.1,40.4c-0.8,0.4-2.6,0.4-3.6,0.4c-2.9-0.1-3-0.4-3-3.2v-3.9l1.3,0.3
		c0.2,0,0.3,0.1,0.3,0.3v3.8c0,0.8,0.1,0.9,0.8,1c0.7,0.1,1.6,0.1,2.5-0.1c0.4-0.1,0.5-0.4,0.6-1l0.2-0.9c0-0.2,0.3-0.2,0.3,0
		c0.2,0.9,0.3,1.5,0.7,1.8C66.1,39.6,65.7,40.1,65.1,40.4z M63.4,34.5c0.8,1.2-0.6,2.6-1.2,1.2c-0.4-1-0.7-1.8-1-2.6
		c-0.1-0.3,0-0.6,0.3-0.4C62.5,33.4,63,33.9,63.4,34.5z M66.4,38.3c-0.5-1.2-0.7-2.2-1.1-3.2c-0.1-0.4,0.1-0.5,0.4-0.3
		c0.9,0.9,1.7,1.6,2.1,2.6C68.4,38.8,67,39.8,66.4,38.3z"/>
	<path class="st0" d="M75.4,26.8c-0.8,0.9-2.1,2.2-3.6,3.2c-0.3,0.2-0.5-0.2-0.3-0.4c1.1-1.2,2.1-2.7,2.9-4.2l0.9,0.7
		C75.6,26.4,75.7,26.6,75.4,26.8z M76.4,30.3c-0.9-0.6-1.3-0.8-2.2-1.2c-0.2-0.1-0.2-0.4,0.1-0.4c0.4,0,1.8,0.1,1.9,0
		c0.1,0,0.1-0.1,0.1-0.2V25h-3.8c-0.4,0-0.5-0.2-0.9-1.2h4.4v-4.2l1.4,0.3c0.2,0,0.3,0.2,0.3,0.3v1.1h1.8c0.4,0,0.6-0.2,1-0.7
		c0.4,0.5,0.8,0.7,0.8,1.1c0,0.5-0.4,0.8-1.1,0.8h-2.5v1.4h3.2c0.4,0,0.6-0.2,1-0.7c0.5,0.5,0.9,0.8,0.9,1.2c0,0.6-0.5,0.8-1.2,0.8
		h-3.5v4.4C77.9,30.2,77.1,30.8,76.4,30.3z M87.2,32.4v7.7c0,0.8-0.9,1.2-1.8,1.1v-1.4h-8.2v0.3c0,1-1,1.4-1.8,1.2V30.5l1.5,0.3
		c0.3,0,0.4,0.2,0.4,0.4h7.3c0.4,0,0.6-0.2,0.9-0.5l1.5,0.4C87.7,31.3,87.2,31.9,87.2,32.4z M77.1,32.3v1.3h8.2v-1.3H77.1z
		 M77.1,36.1h8.2v-1.3h-8.2V36.1z M85.4,38.6v-1.3h-8.2v1.3H85.4z M79,25.9c0.8,0.3,1.6,0.7,2.1,1.3c0.8,0.8-0.2,2.5-1,1.2
		c-0.6-0.9-1-1.7-1.4-2.1C78.5,26,78.7,25.8,79,25.9z M90.9,29.7l-0.8,0.5c-0.8,0.5-0.9,0.5-2.1-0.2c-0.9-0.6-1.7-1.2-2.4-2.1
		C84,29.3,81.7,30.6,79,31c-0.3,0-0.4-0.3-0.2-0.5c2.4-1,4.4-2.1,5.9-3.7c-0.8-1.3-1.2-3-1.5-4.5h-0.7c-0.3,0-0.5-0.2-0.9-1.2H87
		c0.3,0,0.6,0,0.9-0.4l0.7,0.7c0.5,0.5,0.5,0.8,0.4,1.1c-0.6,1.4-1.4,3.2-2.5,4.4c1.3,1.2,2.9,2,4.3,2.5
		C91.1,29.4,91.1,29.6,90.9,29.7z M84,22.3c0.3,1.1,0.8,2.4,1.5,3.5c0.7-1,1.3-2.4,1.7-3.5H84z"/>
	<path class="st0" d="M98.6,27.7c0,2.9-0.3,6.6-1,8.8c-0.6,1.7-1.4,3.3-2.6,4.3c-0.2,0.2-0.5,0-0.4-0.3c1-1.8,1.6-4.2,1.9-7.7
		c0.2-2.9,0.2-7,0.2-11.4l1.5,0.3c0.2,0,0.4,0.2,0.4,0.3v0h6.7c-0.1-0.1-0.2-0.3-0.4-0.5c-0.5-0.8-0.8-1.3-1.2-1.9
		c-0.2-0.3,0-0.5,0.3-0.4c1,0.4,1.8,0.6,2.3,1.2c0.4,0.5,0.4,1.2,0,1.6h5.9c0.4,0,0.6-0.2,1-0.7c0.4,0.5,0.8,0.8,0.8,1.2
		c0,0.6-0.5,0.8-1.2,0.8H98.6V27.7z M102.8,27.8v12.2c0,1.1-0.9,1.4-1.7,1.2V30.6c-0.6,0.9-1.4,1.9-2.2,2.5
		c-0.2,0.1-0.5-0.1-0.3-0.4c0.9-1.4,1.6-2.9,2.3-4.4c0.7-1.6,1.3-3.1,1.8-4.8l1.2,0.8c0.4,0.2,0.4,0.4,0.3,0.7
		C103.9,25.8,103.4,26.8,102.8,27.8z M114.5,28.3c0,0.6-0.5,0.8-1.1,0.8h-1.9v10.6c0,1.2-1,1.9-1.9,1.2c-0.8-0.8-1.8-1.2-2.5-1.5
		c-0.2-0.1-0.2-0.4,0-0.4c0.5,0,2.3,0.1,2.4,0c0.1,0,0.1-0.1,0.1-0.2v-9.7h-5.4c-0.3,0-0.4-0.2-0.8-1.3h6.2v-3.9l1.4,0.3
		c0.3,0.1,0.3,0.3,0.3,0.4v3.2h1.1c0.4,0,0.7-0.3,1-0.8C114.1,27.5,114.5,27.9,114.5,28.3z M106,34.6c-0.6-1.3-1-2.5-1.4-3.5
		c-0.1-0.2,0.2-0.4,0.4-0.2c1,0.8,2.1,1.7,2.6,2.7C108.4,35.2,106.8,36.5,106,34.6z"/>
	<path class="st1" d="M122.4,24.9c0,0.9-0.1,2-0.1,3.1h1c0.4,0,0.6-0.2,0.9-0.5l1.3,0.5c0.9,0.3,0.4,1,0.4,1.4c0,2.6-0.2,4.4-0.3,6
		c-0.3,2.8-0.8,4.6-1.9,5.1c-0.3,0.2-0.7,0.3-1.1-0.1c-0.4-0.4-1.1-0.9-1.6-1.2c-0.2-0.1-0.3-0.4,0.1-0.4c2.1,0.1,2.1,0.1,2.7-2.7
		c0.3-1.5,0.4-4.7,0.5-7h-1.9c0,0.6-0.1,1.1-0.1,1.5c-0.5,4.6-1.5,8.6-3.8,10.3c-0.2,0.2-0.5,0-0.4-0.3c1.1-2.2,1.9-4.4,2.4-9.8
		c0.1-1.1,0.2-4.2,0.2-6h-1.6c-0.4,0-0.5-0.2-0.9-1.2h4.7c-0.2-0.1-0.4-0.4-0.6-0.9c-0.3-1.1-0.7-2.3-0.9-2.7
		c-0.1-0.2,0.1-0.5,0.4-0.3c0.7,0.5,1.7,1.3,2.1,2.1c0.4,0.8,0.1,1.6-0.3,1.9h2c0.4,0,0.6-0.2,1-0.7c0.5,0.5,0.9,0.8,0.9,1.1
		c0,0.6-0.4,0.8-1.2,0.8H122.4z M138.1,39.9c-1.5,0.8-1.5,0.9-2,0.4c-1.3-1.3-2.7-3.1-3.7-5.4c-0.8-1.9-1.3-4.1-1.6-6.3
		c-0.3,0.1-0.6,0.1-1,0.2V38c0.9-0.4,1.7-0.8,2.7-1.3c0.4-0.2,0.5,0.2,0.3,0.4c-1.2,1-3.2,2.4-4.6,3.4c-0.7,0.5-0.7,0.4-2-1
		c0.7-0.3,1.4-0.5,1.9-0.7V27.6l1.4,0.3c0.2,0,0.3,0.1,0.3,0.2c2.1-0.8,3.6-1.7,5-2.7l0.8,0.9c0.3,0.4,0.3,0.5,0,0.6
		c-0.5,0.2-2.1,0.9-3.9,1.3c0.2,1.2,0.5,2.7,1.1,4.1c1-0.8,1.8-1.7,2.8-3l0.9,1c0.4,0.4,0.4,0.5-0.1,0.8c-0.7,0.5-1.9,1.2-3.4,1.9
		l0.2,0.4c1.1,2.3,2.4,4.1,4.8,6C138.3,39.7,138.3,39.8,138.1,39.9z M126.7,27.9c1.4-2.7,2.4-5.9,3-8.4l1.1,0.6
		c0.5,0.3,0.5,0.3,0.3,0.8c-0.2,0.6-0.6,1.5-1.1,2.4h5.4c0.4,0,0.7-0.2,1-0.7c0.5,0.5,0.8,0.8,0.8,1.1c0,0.5-0.4,0.8-1.2,0.8h-6.7
		c-0.7,1.3-1.5,2.6-2.4,3.5C126.8,28.4,126.5,28.3,126.7,27.9z"/>
	<path class="st1" d="M161.7,33.5c-1.4,0.9-1.4,1.1-2.3,0.7c-0.6-0.3-1.4-0.8-2.5-1.7c-1.2-1-2.4-2.3-3.3-3.6h-3.5
		c-0.7,1.2-1.6,2.4-2.7,3.4h6.6c0.4,0,0.7-0.1,1-0.5l1.2,0.5c1.2,0.5,0.6,0.9,0.5,1.5c-0.2,2.7-0.4,6.1-2,7.3
		c-0.5,0.4-0.9,0.4-1.3,0c-0.5-0.4-1.4-0.8-2.3-1.2c-0.2-0.1-0.2-0.4,0.1-0.4c2.5,0,2.5,0,2.9-0.7c0.5-1,0.7-2.9,0.9-5.2h-3.8
		c-0.5,2.6-1.9,4.7-3.2,5.8c-1.2,1-2.8,1.6-4.9,1.9c-0.4,0-0.4-0.4-0.1-0.5c1.9-0.7,3.2-1.6,4.2-2.6c1-1,1.9-2.8,2.3-4.7h-1.9
		c-0.3,0-0.4-0.1-0.6-0.6c-1.3,1-2.8,1.8-4.6,2.3c-0.4,0.1-0.4-0.3-0.2-0.4c2.5-1.5,4.7-3.2,6.4-6h-5.4c-0.4,0-0.5-0.3-1-1.3h7.1
		c0.3-0.6,0.5-1.2,0.7-1.8h-5.2c-0.4,0-0.5-0.2-1-1.2h6.5c0.4-1.5,0.6-3.1,0.8-5.1l1.2,0.4c0.6,0.2,0.6,0.3,0.5,0.9
		c-0.2,1.3-0.3,2.5-0.6,3.7h1.6c0.8-1.1,2-3.3,2.6-4.7l1,0.8c0.4,0.4,0.4,0.5,0.2,0.8c-0.5,0.7-1.8,2.2-2.7,3h2.8
		c0.4,0,0.6-0.2,1-0.7c0.5,0.5,0.8,0.8,0.8,1.2c0,0.5-0.5,0.8-1.2,0.8h-6.5c-0.2,0.6-0.4,1.2-0.7,1.8h8.6c0.4,0,0.6-0.2,1-0.7
		c0.5,0.5,0.8,0.8,0.8,1.2c0,0.5-0.4,0.8-1.2,0.8h-5.2c0.9,1,2.1,1.9,3.5,2.7c1,0.6,2.1,1.1,3.3,1.5
		C161.9,33.2,161.9,33.4,161.7,33.5z M145.2,20.5c-0.2-0.2,0-0.5,0.3-0.4c1.4,0.6,2.4,1.4,2.9,2.2c0.8,1.4-0.4,2.8-1.2,1.4
		C146.7,23,145.8,21.4,145.2,20.5z"/>
	<path class="st0" d="M172.8,35.2c-1.9,1.7-4.5,3.6-7.1,4.9c-0.4,0.2-0.5-0.3-0.2-0.5c2.2-1.8,4.6-4.1,6.3-6.3l1.1,1
		C173.2,34.7,173.2,34.9,172.8,35.2z M176.3,31.8v8.3c0,1.1-1.1,1.4-1.9,1.1v-9.1c-2.3,0.3-4.6,0.6-5.8,0.8c-0.8,0.1-0.9,0-1.9-1.9
		c1.3,0,3.1,0,4.9-0.1c2.1-1.5,5.5-4.4,7.4-7l1.1,1c0.4,0.4,0.5,0.5,0.1,0.8c-1.4,1.2-4.3,3.6-7.1,5.1c2.5-0.1,5-0.3,6.8-0.4
		l-1.5-1.7c-0.3-0.3,0-0.5,0.3-0.4c2.2,1.1,3.8,2,4.6,3c0.9,1.3-0.2,2.8-1.3,1.5c-0.4-0.5-0.9-1.1-1.5-1.7
		C179.5,31.4,177.9,31.6,176.3,31.8z M167.4,21.9c4.7-0.6,10.4-1.2,14.4-2.4l0.6,0.9c0.5,0.7,0.4,1-0.2,1.1
		c-1.8,0.3-4.3,0.6-6.9,0.8l0.4,0.3c0.4,0.3,0.4,0.4,0,0.7c-0.8,0.7-2.2,1.8-3.4,2.5c0.5,0.3,0.9,0.6,1.2,0.9
		c1.2,1.3-0.2,2.7-1.2,1.6c-0.9-0.9-2.1-2.3-3.1-3.3c-0.2-0.2-0.1-0.5,0.3-0.4c0.9,0.3,1.7,0.6,2.3,0.9c0.6-0.7,1.6-1.9,2.3-3.1
		c-2.3,0.1-4.6,0.2-6.5,0.1C167.1,22.5,167.1,22,167.4,21.9z M182.2,38.7c-1.3-1.4-2.8-3.1-4.4-4.7c-0.3-0.3,0-0.5,0.3-0.4
		c2.8,1.3,4.5,2.6,5.2,3.5C184.6,38.4,183.5,40.2,182.2,38.7z"/>
	<path class="st0" d="M193.6,31v8.9c0,0.9-0.7,1.4-1.7,1.2v-9.5c-0.6,0.2-1.3,0.5-1.9,0.7s-0.7,0.1-1.6-1.4c0.7-0.1,1.3-0.2,1.9-0.3
		c1.5-2,2.6-4.2,3.9-7.3l1,0.7c0.4,0.3,0.5,0.4,0.3,0.8c-0.9,1.5-2.7,4.1-4.2,5.7c1.2-0.2,2.3-0.4,3.1-0.6l-0.4-1.6
		c-0.1-0.3,0.2-0.5,0.4-0.3c0.8,0.9,1.5,1.8,1.9,2.5c0.7,1.6-0.8,2.6-1.3,1.2c-0.1-0.4-0.2-0.8-0.4-1.2L193.6,31z M191.1,34.4
		c-0.4,1.3-1.2,3.9-2,5.3c-0.2,0.3-0.5,0.1-0.4-0.2c0.3-1.5,0.7-4.2,1-6.4l1,0.5C191.3,33.8,191.4,33.8,191.1,34.4z M189.1,24.2
		c-0.1-0.3,0-0.6,0.3-0.4c0.4,0.3,0.7,0.5,1,0.8c0.6-1.3,1.2-3.1,1.8-4.9l0.9,0.6c0.6,0.4,0.6,0.5,0.4,0.8c-0.8,1.3-1.7,2.8-2.6,3.9
		c0.2,0.3,0.5,0.6,0.7,0.9c0.8,1.2-0.4,2.8-1.2,1.3C189.9,26.3,189.5,25,189.1,24.2z M208.3,40.3c-0.6,0.3-1.5,0.5-2.8,0.5
		c-2.8,0-2.9-0.4-2.9-3.7v-7.7l-1.8,0.4v3c0,2.1-0.3,3.9-1.1,5c-1.4,2.1-3.3,3.1-5.3,3.5c-0.4,0.1-0.4-0.4-0.1-0.5
		c1.7-0.9,3.4-2.2,4.1-3.9c0.4-0.8,0.6-2,0.6-3.2c0-1.1,0-2.3,0-3.6c-0.4,0.1-0.8,0.2-1.2,0.2c-0.6,0.1-0.7,0-1.5-1.6l1.9-0.1h0
		c0.7-1,1.6-2.9,2.2-4.4h-3.5c-0.3,0-0.4-0.3-0.8-1.2h5.9c-0.2-0.1-0.3-0.2-0.5-0.5c-0.6-0.9-1-1.7-1.5-2.5c-0.2-0.3,0-0.5,0.2-0.4
		c1.1,0.5,2.1,1,2.5,1.6c0.6,0.7,0.4,1.6-0.1,1.8h3.5c0.4,0,0.6-0.2,1-0.7c0.5,0.5,0.8,0.7,0.8,1.1c0,0.6-0.5,0.8-1.2,0.8h-4.5
		c-0.7,1.2-2,3.2-3.1,4.3c2-0.1,3.8-0.3,5.4-0.5l-1-1.8c-0.2-0.3,0.1-0.5,0.3-0.3c1.8,1.2,2.7,1.9,3.2,2.6c0.8,1.1-0.2,2.9-1.4,1.2
		c-0.2-0.3-0.4-0.7-0.7-1.1l-0.7,0.2v8.8c0,1,0.1,1.2,1,1.2c1.3,0,1.6-0.1,1.7-0.9l0.2-1.9c0-0.2,0.3-0.2,0.3,0l0.3,1.8
		c0.1,0.4,0.2,0.6,0.5,1C208.8,39.5,208.7,40.1,208.3,40.3z M194.7,33.2c0.7,1.1,1.4,2.1,1.7,3.1c0.5,1.7-1.2,2.6-1.5,0.9
		c-0.2-1.1-0.4-2.8-0.6-3.7C194.3,33.1,194.5,32.9,194.7,33.2z"/>
</g>
<g>
	<path class="st2" d="M36.6,3.4v3.4c0,0.5-0.5,0.8-0.9,0.7V6.8h-2.6v3.9c0,0.6-0.5,0.8-1,0.7V6.8h-2.6V7c0,0.5-0.5,0.8-0.9,0.6V2.4
		l0.7,0.2c0.1,0,0.2,0.1,0.2,0.2v0h2.6V0.4l0.8,0.2c0.1,0,0.2,0.1,0.2,0.2v2h2c0.3,0,0.4-0.2,0.5-0.4l0.8,0.3
		C36.9,2.8,36.6,3.2,36.6,3.4z M32.1,6.1V3.4h-2.6v2.7H32.1z M35.7,6.1V3.4h-2.6v2.7H35.7z"/>
	<path class="st2" d="M50.6,6.4c0,0.3-0.3,0.4-0.7,0.4h-4.1l-0.1,0.4c-0.4,1.2-1.5,3.4-4.8,4.1c-0.2,0-0.2-0.2-0.1-0.2
		c2.5-1.1,3.5-2.6,3.9-3.8c0-0.1,0.1-0.2,0.1-0.4h-3.7c-0.2,0-0.3-0.1-0.5-0.7h1.8V2.3l0.7,0.1c0.2,0,0.2,0.1,0.2,0.2h1.8V0.5
		l0.7,0.1c0.2,0,0.2,0.1,0.2,0.3c0,0.6,0,1.2,0,1.7h1.3c0.2,0,0.4-0.1,0.5-0.3l0.7,0.3c0.5,0.2,0.2,0.5,0.2,0.8v2.8h0.6
		c0.2,0,0.3-0.1,0.6-0.4C50.3,6.1,50.6,6.3,50.6,6.4z M45.1,6.2c0.1-0.8,0.2-1.8,0.2-2.9h-1.8v2.9H45.1z M46,6.2h2V3.3h-1.8
		C46.1,4.5,46.1,5.4,46,6.2z M49.6,9.9c0.7,0.8,0.2,1.7-0.4,1c-0.6-0.7-2.1-2.5-3-3.4c-0.2-0.2,0-0.3,0.1-0.2
		C47.5,8.1,48.7,9,49.6,9.9z"/>
	<path class="st2" d="M55.6,8.9v0.9c0,0.5-0.5,0.7-0.9,0.6V5.8c-0.3,0.4-0.5,0.7-0.8,0.9c-0.2,0.1-0.3,0-0.2-0.2
		c0.4-0.6,0.7-1.3,1-2c0.3-0.8,0.5-1.6,0.6-2.8h-1.1c-0.2,0-0.3-0.1-0.4-0.6h3.2c0.2,0,0.3-0.1,0.5-0.3C57.8,1,58,1.2,58,1.3
		c0,0.3-0.2,0.4-0.6,0.4h-1.1c-0.1,0.9-0.4,1.8-0.8,2.6h0.7c0.2,0,0.3-0.1,0.4-0.2l0.7,0.2c0.4,0.1,0.1,0.5,0.1,0.7v4
		c0,0.5-0.5,0.7-0.9,0.6V8.9H55.6z M55.6,4.9v3.4h1.1V4.9H55.6z M63.8,5.3c0,0.2-0.2,0.4-0.6,0.4h-1v5c0,0.5-0.4,0.7-0.9,0.6V5.7
		h-1.2c-0.1,1.6-0.5,2.8-1.1,3.7c-0.7,1-1.6,1.7-2.6,2c-0.1,0-0.3-0.1-0.1-0.2c0.8-0.5,1.6-1.3,2.1-2.2c0.5-0.9,0.8-2.1,0.8-3.3
		h-1.1c-0.2,0-0.2-0.2-0.5-0.7h1.6c0-1.1,0-1.6,0-3.3h-0.4c-0.2,0-0.2-0.2-0.5-0.7h4.1c0.2,0,0.3-0.1,0.5-0.3
		c0.2,0.2,0.4,0.4,0.4,0.6c0,0.2-0.2,0.4-0.6,0.4h-0.6V5h0.7c0.2,0,0.3-0.1,0.5-0.4C63.6,4.9,63.8,5.1,63.8,5.3z M61.3,5V1.8h-1.2V5
		H61.3z"/>
	<path class="st2" d="M67.2,3c0.3-0.3,0.7-0.9,0.9-1.6c0-0.1,0.2-0.1,0.2,0v0.3h3.4c-0.1,0-0.1-0.1-0.2-0.2
		c-0.3-0.3-0.5-0.6-0.8-0.9c-0.1-0.1,0-0.2,0.1-0.2c0.4,0.1,1,0.2,1.3,0.4s0.2,0.7,0,0.9h3c0.3,0,0.3,0,0.5-0.2l0.4,0.4
		c0.2,0.2,0.2,0.3,0.1,0.4c-0.4,0.3-0.8,0.6-1.1,0.9c-0.1,0.1-0.2,0-0.2-0.2c0.1-0.3,0.2-0.5,0.3-0.8h-2v1.1c0,0.4,0,0.5,0.4,0.5
		c0.6,0,1.3,0,1.8,0c0.2,0,0.3-0.1,0.3-0.3l0.1-0.3c0-0.1,0.1-0.1,0.2,0C76,3.7,76,3.9,76.1,4c0.3,0.2,0.2,0.6,0,0.7
		c-0.6,0.2-1.6,0.2-2.2,0.2c-1.5-0.1-1.5-0.2-1.5-1.5v-1h-1.1c-0.3,0.9-1,1.8-1.8,2.3c-0.7,0.4-1.4,0.7-2.2,0.9
		c-0.2,0-0.2-0.2-0.1-0.2c0.6-0.3,1.3-0.6,1.8-1c0.6-0.5,1.1-1.2,1.3-1.9h-2c0,0.3-0.1,0.6-0.2,0.9C67.7,4.3,66.8,3.6,67.2,3z
		 M76.6,10.8c-0.3,0.2-1.4,0.3-2.2,0.3c-1.5-0.1-1.6-0.2-1.6-1.9V6.8h-1.5c-0.2,1.6-0.7,2.4-1.4,3.1c-0.7,0.7-1.7,1.2-2.7,1.4
		c-0.2,0-0.2-0.2-0.1-0.2c1-0.5,1.8-1,2.4-1.8c0.3-0.5,0.6-0.9,0.8-1.7c0-0.2,0.1-0.5,0.1-0.8h-2.1c-0.2,0-0.3-0.2-0.5-0.6h2.6
		c0-0.5,0-1.2,0-1.9l0.7,0.2c0.1,0,0.2,0.1,0.2,0.2v0.9c0,0.2,0,0.4,0,0.6h1c0.3,0,0.4-0.1,0.5-0.3l0.8,0.3c0.5,0.2,0.1,0.5,0.1,0.8
		v2.7c0,0.5,0,0.6,0.4,0.6c0.6,0,1,0,1.5-0.1c0.2,0,0.3-0.2,0.3-0.5l0.1-0.9c0-0.1,0.2-0.1,0.2,0c0.1,0.9,0.2,1.1,0.4,1.3
		C76.9,10.4,76.9,10.7,76.6,10.8z"/>
	<path class="st2" d="M81.6,8.2c-0.1-0.1,0-0.2,0.1-0.1c0.5,0.1,0.6,0.1,0.7-0.1c0.2-0.2,0.3-0.5,0.3-1.2c0-0.7-0.5-1.8-0.8-2.1
		c-0.1-0.1-0.1-0.2,0-0.3c0.3-0.8,0.4-1.5,0.6-2.4h-1.2v8.8c0,0.5-0.4,0.7-0.9,0.6V1l0.7,0.2c0.1,0,0.2,0.1,0.2,0.2h0.9
		c0.2,0,0.3,0,0.4-0.2l0.6,0.4c0.2,0.2,0.2,0.3,0.1,0.4c-0.4,0.9-0.8,1.9-1.2,2.6c2,1.7,1.4,4.1,0.4,4.4C82.2,9,82.1,8.7,81.6,8.2z
		 M89.8,10.8c-0.4,0.2-1.1,0.3-1.5,0.3c-1.6,0-1.6-0.2-1.6-2.2V6.7h-0.8c-0.1,1.3-0.3,2.3-1,3.2c-0.5,0.8-1.7,1.3-2.6,1.5
		c-0.1,0-0.2-0.2-0.1-0.2c0.7-0.4,1.5-0.9,1.9-1.5C84.8,8.7,85,7.7,85,6.7h-0.9c-0.2,0-0.2-0.2-0.4-0.6h4.9c0.2,0,0.3-0.1,0.5-0.3
		c0.2,0.2,0.4,0.4,0.4,0.6c0,0.2-0.2,0.4-0.6,0.4h-1.4v2.8c0,0.7,0,0.8,0.5,0.8c0.3,0,0.6,0,0.9-0.1c0.2-0.1,0.2-0.2,0.4-1.2
		c0-0.1,0.2-0.1,0.2,0c0.1,0.9,0.1,1,0.4,1.2C90.1,10.5,89.9,10.7,89.8,10.8z M83.5,3.4c0.2-0.3,0.6-0.8,0.8-1.4
		c0-0.1,0.2-0.1,0.2,0v0.2h1.9c-0.1-0.1-0.2-0.2-0.2-0.3C86,1.5,85.9,1,85.7,0.7c-0.1-0.1,0.1-0.2,0.2-0.1c0.4,0.2,0.8,0.4,1,0.9
		c0.1,0.4,0,0.7-0.2,0.8h1.7c0.2,0,0.3,0,0.5-0.2l0.4,0.4c0.3,0.3,0.3,0.4,0.1,0.5c-0.4,0.4-0.8,0.8-1,1c-0.1,0.1-0.3,0-0.2-0.1
		c0.1-0.2,0.2-0.6,0.3-0.8h-4.1c0,0.2,0,0.3-0.1,0.5C84.1,4.7,82.8,4.2,83.5,3.4z M88.4,4.5c0,0.2-0.2,0.4-0.6,0.4h-2.9
		c-0.2,0-0.2-0.2-0.4-0.6h3c0.2,0,0.3-0.1,0.5-0.3C88.2,4.2,88.4,4.3,88.4,4.5z"/>
	<path class="st2" d="M97.2,5.9c0-0.5,0.4-0.8,0.8-0.8c0.4,0,0.8,0.4,0.8,0.8c0,0.4-0.4,0.8-0.8,0.8C97.5,6.7,97.2,6.3,97.2,5.9z"/>
	<path class="st2" d="M106.3,6.3c0.3-0.3,0.7-0.6,0.9-1.3c0-0.1,0.2-0.1,0.2,0c0,0.1,0,0.2,0,0.3h7.1c0.2,0,0.4,0,0.5-0.2l0.4,0.4
		c0.2,0.2,0.2,0.3,0.1,0.4c-0.3,0.3-0.8,0.7-1,0.9c-0.1,0.1-0.2,0-0.2-0.2c0.1-0.2,0.3-0.6,0.3-0.8h-7.4c0,0.2-0.1,0.5-0.2,0.6
		C106.7,7.5,105.7,6.9,106.3,6.3z M115.7,10.6c0,0.3-0.2,0.4-0.6,0.4h-8.5c-0.2,0-0.3-0.1-0.4-0.6h4.3V9.8H108
		c-0.2,0-0.2-0.1-0.4-0.6h2.9V8.4l0.8,0.1c0.1,0,0.2,0.1,0.2,0.1v0.5h1.8c0.2,0,0.3-0.1,0.5-0.3c0.2,0.2,0.4,0.3,0.4,0.5
		c0,0.3-0.2,0.4-0.5,0.4h-2.1v0.6h3.4c0.2,0,0.3-0.1,0.5-0.3C115.5,10.3,115.7,10.5,115.7,10.6z M106.6,1.2h3.9V0.6l0.7,0.1
		c0.1,0,0.2,0.1,0.2,0.2v0.3h3c0.2,0,0.3-0.1,0.5-0.3c0.2,0.2,0.4,0.4,0.4,0.5c0,0.2-0.2,0.3-0.5,0.3h-3.3v0.5h1.7
		c0.2,0,0.3-0.1,0.5-0.3c0.2,0.2,0.4,0.3,0.4,0.5c0,0.2-0.2,0.3-0.6,0.3h-5.3c-0.2,0-0.2-0.1-0.4-0.6h2.8V1.7H107
		C106.9,1.7,106.8,1.6,106.6,1.2z M109.8,6.9h-1.9c-0.2,0-0.2-0.1-0.4-0.5h5.8c0.2,0,0.3-0.1,0.4-0.3c0.2,0.2,0.3,0.3,0.3,0.5
		c0,0.2-0.1,0.3-0.4,0.3h-2.7c-0.3,0.3-0.7,0.6-1.1,0.9c1.2,0,2.3,0,3.1-0.1c-0.1-0.1-0.3-0.2-0.5-0.4c-0.1-0.1-0.1-0.3,0.1-0.2
		c0.7,0.2,1.2,0.3,1.7,0.6c0.5,0.4,0.2,1.3-0.4,0.7c-0.2-0.2-0.4-0.3-0.5-0.5c-1.7,0.4-4,0.4-5.2,0.5c-0.3,0-0.3-0.1-0.6-0.7
		c0.6,0,1.1,0,1.6,0C109.3,7.5,109.5,7.3,109.8,6.9z M112.5,5.1V4.8h-3.3c-0.1,0.3-0.5,0.4-0.8,0.3V3l0.7,0.2c0.1,0,0.2,0.1,0.2,0.1
		h2.8c0.2,0,0.3-0.1,0.4-0.3l0.7,0.2c0.4,0.1,0.2,0.4,0.2,0.6v0.7C113.4,5,113,5.2,112.5,5.1z M112.5,4.3V3.8h-3.2v0.5H112.5z"/>
	<path class="st2" d="M120.5,8.3c0.2,0.8,0.3,1.3,0.3,1.8c0,0.8-0.4,1.2-0.7,1.2c-0.3,0-0.5-0.2-0.4-0.7c0.2-0.6,0.5-1.5,0.4-2
		c0-0.4-0.5-0.5-1.1-0.5c-0.1,0-0.2-0.2,0-0.3c0.6-0.1,0.8-0.1,0.9-0.6c0.4-0.9,0.9-3,1.3-4.3c0.1-0.2,0.3-0.1,0.2,0
		C120.7,6.4,120.4,7.7,120.5,8.3z M119,3.7c-0.1-0.1,0-0.2,0.1-0.2c0.4,0.2,0.8,0.3,1.1,0.6c0.5,0.5-0.1,1.4-0.5,0.7
		C119.4,4.4,119.2,4,119,3.7z M119.6,1.1c-0.1-0.1,0-0.2,0.1-0.2c0.4,0.1,0.9,0.3,1.1,0.6c0.5,0.5-0.1,1.4-0.5,0.8
		C120,1.8,119.8,1.5,119.6,1.1z M122.2,4.9c-0.2,0.3-0.5,1-0.9,1.4c-0.1,0.1-0.2,0-0.2-0.1c0.2-0.6,0.4-1.1,0.5-1.8l0.4,0.2
		C122.2,4.6,122.3,4.7,122.2,4.9z M121.9,3.6c0.4-0.5,0.6-0.9,1.1-2.1l0.4,0.3c0.1,0.1,0.1,0.2,0.1,0.3c-0.3,0.4-0.6,0.9-1.1,1.4
		c0.3,0,0.6-0.1,0.8-0.1c-0.1-0.2-0.1-0.4-0.1-0.5c0-0.1,0.1-0.2,0.2-0.1c0.2,0.2,0.5,0.4,0.7,0.9c0.2,0.6-0.4,0.9-0.5,0.3l-0.1-0.3
		c-0.1,0-0.2,0.1-0.3,0.1v2c0,0.4-0.3,0.5-0.6,0.4V4.1c-0.2,0.1-0.3,0.1-0.5,0.2c-0.2,0.1-0.3-0.1-0.5-0.6
		C121.5,3.7,121.8,3.6,121.9,3.6z M121.5,1.7c-0.1-0.1,0-0.2,0.1-0.1c0.1,0,0.3,0.1,0.4,0.2c0.2-0.4,0.3-0.7,0.5-1.3l0.4,0.3
		c0.2,0.1,0.2,0.2,0.1,0.3c-0.2,0.3-0.4,0.5-0.7,0.9c0.1,0.1,0.1,0.2,0.2,0.3c0.2,0.4-0.2,0.9-0.5,0.4
		C121.8,2.5,121.6,1.9,121.5,1.7z M128,9.5c0,0-0.5,1.5-1.3,1.9c-0.3,0.1-0.5,0.1-0.7-0.1c-0.2-0.1-0.5-0.3-0.9-0.6
		c-0.1,0-0.1-0.2,0-0.2c1.1,0.1,1.3,0.1,1.6-0.3c0.1-0.2,0.2-0.4,0.3-0.7h-4.5c-0.1,0.2-0.2,0.3-0.3,0.3c-0.2,0.1-0.5,0-0.7-0.1
		l0.8-2.4l0.6,0.2c0.1,0,0.2,0.1,0.2,0.2h3.6V7.1H122c-0.2,0-0.2-0.2-0.4-0.6h4.7c0.2,0,0.3-0.1,0.5-0.3l0.7,0.2
		c0.5,0.2,0.2,0.4,0.2,0.6v0.8c0,0.5-0.4,0.6-0.8,0.5V8.3H123l-0.2,0.6h4.1c0.1,0,0.2,0,0.4-0.2l0.5,0.3C128.4,9.1,128,9.4,128,9.5z
		 M123.9,5.3c0.2,0.6-0.4,0.9-0.6,0.3c-0.1-0.4-0.2-0.9-0.2-1.2c0-0.1,0.1-0.2,0.2-0.1C123.6,4.6,123.8,4.8,123.9,5.3z M123.6,1.6
		h1.2c-0.1,0-0.1-0.1-0.2-0.2c-0.1-0.2-0.3-0.6-0.4-0.8c-0.1-0.1,0-0.2,0.1-0.2c0.4,0.2,0.7,0.3,0.8,0.5c0.2,0.2,0.1,0.5-0.1,0.6
		h0.3c0.2,0,0.3-0.1,0.4-0.3c0.2,0.2,0.3,0.3,0.3,0.4c0,0.2-0.2,0.3-0.5,0.3H124C123.8,2.2,123.7,2.1,123.6,1.6z M124.1,3
		c-0.2,0-0.2-0.1-0.3-0.5h1.6c0.1,0,0.2-0.1,0.4-0.3c0.2,0.2,0.3,0.3,0.3,0.4c0,0.2-0.2,0.3-0.4,0.3H124.1z M126.6,3.6
		c0.4-0.4,0.7-1,1.2-2.2l0.4,0.3c0.2,0.2,0.2,0.2,0.1,0.3c-0.3,0.4-0.7,0.9-1.2,1.4c0.3-0.1,0.6-0.1,0.9-0.2c0-0.1-0.1-0.2-0.1-0.3
		c-0.1-0.2,0-0.2,0.1-0.1c0.3,0.2,0.5,0.4,0.7,0.8c0.2,0.5-0.3,1-0.5,0.3L128,3.7c-0.1,0-0.2,0.1-0.3,0.1v2c0,0.4-0.3,0.5-0.6,0.4V4
		c-0.2,0.1-0.4,0.1-0.6,0.2c-0.2,0.1-0.3,0-0.5-0.5c-0.1,0-0.2,0.1-0.3,0.1h-1.5c-0.1,0-0.1-0.1-0.3-0.5h1.6c0.1,0,0.2-0.1,0.4-0.3
		c0.2,0.2,0.3,0.3,0.3,0.4c0,0.1,0,0.1,0,0.1C126.3,3.7,126.4,3.6,126.6,3.6z M125.4,6.2V5.8h-0.7c0,0.4-0.3,0.5-0.6,0.5V4.1
		l0.5,0.1c0.1,0,0.1,0.1,0.2,0.1h0.4c0.2,0,0.3-0.1,0.4-0.2l0.5,0.2c0.3,0.1,0.1,0.3,0.1,0.5v0.9C126,6.2,125.8,6.3,125.4,6.2z
		 M125.4,5.4V4.8h-0.7v0.6H125.4z M126.9,4.5c0.1,0.1,0.2,0.1,0.1,0.3c-0.2,0.3-0.4,0.9-0.8,1.4c-0.1,0.1-0.2,0.1-0.2-0.1
		c0.2-0.6,0.3-1.1,0.4-1.8L126.9,4.5z M126.2,1.8c-0.1-0.1,0-0.2,0.1-0.2c0.2,0.1,0.3,0.2,0.4,0.3c0.2-0.5,0.3-0.7,0.5-1.4l0.4,0.3
		c0.1,0.1,0.2,0.2,0.1,0.3c-0.2,0.3-0.5,0.6-0.8,1c0.1,0.1,0.1,0.2,0.2,0.3c0.2,0.4-0.2,0.9-0.5,0.4C126.5,2.4,126.3,1.9,126.2,1.8z
		 M128.2,5.6c-0.1-0.5-0.2-0.9-0.3-1.1c0-0.1,0.1-0.2,0.1-0.1c0.2,0.2,0.6,0.6,0.7,1C128.9,5.9,128.4,6.3,128.2,5.6z"/>
	<path class="st2" d="M142,10.5c-0.6,0.8-0.7,0.8-1.1,0.8c-1.6-0.2-3.1-0.7-4.5-2c-0.8,1-2.1,1.7-4.1,2.1c-0.2,0-0.3-0.2-0.1-0.2
		c1.8-0.7,3-1.5,3.6-2.5c-0.4-0.6-0.9-1.2-1.2-2.1c0.3-0.1,0.4-0.1,0.5,0c0.4,0.5,0.7,1,1,1.4c0.3-0.6,0.4-1.3,0.4-2.1h-2.3
		c0,0.6-0.5,0.8-0.9,0.7V2.2l0.7,0.2c0.1,0,0.2,0.1,0.2,0.2v0h2.3V0.5l0.7,0.2c0.1,0,0.2,0.1,0.2,0.2v1.7h1.6c0.2,0,0.3-0.1,0.5-0.3
		l0.8,0.3c0.4,0.2,0.1,0.4,0.1,0.7v2.7c0,0.5-0.4,0.7-0.9,0.6V5.9h-2.1c-0.1,1-0.3,2-0.7,2.7c1.1,1,2.5,1.6,5,1.8
		C142.1,10.4,142.1,10.4,142,10.5z M134.4,3.2v2.1h2.3V3.2H134.4z M137.6,3.2V5v0.3h2.1V3.2H137.6z"/>
	<path class="st2" d="M147,8.9v0.9c0,0.5-0.5,0.7-0.9,0.6V5.8c-0.3,0.4-0.5,0.7-0.8,0.9c-0.2,0.1-0.3,0-0.2-0.2c0.4-0.6,0.7-1.3,1-2
		c0.3-0.8,0.5-1.6,0.6-2.8h-1.1c-0.2,0-0.3-0.1-0.4-0.6h3.2c0.2,0,0.3-0.1,0.5-0.3c0.2,0.2,0.4,0.4,0.4,0.5c0,0.3-0.2,0.4-0.6,0.4
		h-1.1c-0.1,0.9-0.4,1.8-0.8,2.6h0.7c0.2,0,0.3-0.1,0.4-0.2l0.7,0.2c0.4,0.1,0.1,0.5,0.1,0.7v4c0,0.5-0.5,0.7-0.9,0.6V8.9H147z
		 M147,4.9v3.4h1.1V4.9H147z M155.2,5.3c0,0.2-0.2,0.4-0.6,0.4h-1v5c0,0.5-0.4,0.7-0.9,0.6V5.7h-1.2c-0.1,1.6-0.5,2.8-1.1,3.7
		c-0.7,1-1.6,1.7-2.6,2c-0.1,0-0.3-0.1-0.1-0.2c0.8-0.5,1.6-1.3,2.1-2.2c0.5-0.9,0.8-2.1,0.8-3.3h-1.1c-0.2,0-0.2-0.2-0.5-0.7h1.6
		c0-1.1,0-1.6,0-3.3h-0.4c-0.2,0-0.2-0.2-0.5-0.7h4.1c0.2,0,0.3-0.1,0.5-0.3c0.2,0.2,0.4,0.4,0.4,0.6c0,0.2-0.2,0.4-0.6,0.4h-0.6V5
		h0.7c0.2,0,0.3-0.1,0.5-0.4C155,4.9,155.2,5.1,155.2,5.3z M152.7,5V1.8h-1.2V5H152.7z"/>
	<path class="st2" d="M158.6,3c0.3-0.3,0.7-0.9,0.9-1.6c0-0.1,0.2-0.1,0.2,0v0.3h3.4c-0.1,0-0.1-0.1-0.2-0.2
		c-0.3-0.3-0.5-0.6-0.8-0.9c-0.1-0.1,0-0.2,0.1-0.2c0.4,0.1,1,0.2,1.3,0.4s0.2,0.7,0,0.9h3c0.3,0,0.3,0,0.5-0.2l0.4,0.4
		c0.2,0.2,0.2,0.3,0.1,0.4c-0.4,0.3-0.8,0.6-1.1,0.9c-0.1,0.1-0.2,0-0.2-0.2c0.1-0.3,0.2-0.5,0.3-0.8h-2v1.1c0,0.4,0,0.5,0.4,0.5
		c0.6,0,1.3,0,1.8,0c0.2,0,0.3-0.1,0.3-0.3l0.1-0.3c0-0.1,0.1-0.1,0.2,0c0.1,0.2,0.1,0.4,0.2,0.5c0.3,0.2,0.2,0.6,0,0.7
		c-0.6,0.2-1.6,0.2-2.2,0.2c-1.5-0.1-1.5-0.2-1.5-1.5v-1h-1.1c-0.3,0.9-1,1.8-1.8,2.3c-0.7,0.4-1.4,0.7-2.2,0.9
		c-0.2,0-0.2-0.2-0.1-0.2c0.6-0.3,1.3-0.6,1.8-1c0.6-0.5,1.1-1.2,1.3-1.9h-2c0,0.3-0.1,0.6-0.2,0.9C159.1,4.3,158.2,3.6,158.6,3z
		 M168,10.8c-0.3,0.2-1.4,0.3-2.2,0.3c-1.5-0.1-1.6-0.2-1.6-1.9V6.8h-1.5c-0.2,1.6-0.7,2.4-1.4,3.1c-0.7,0.7-1.7,1.2-2.7,1.4
		c-0.2,0-0.2-0.2-0.1-0.2c1-0.5,1.8-1,2.4-1.8c0.3-0.5,0.6-0.9,0.8-1.7c0-0.2,0.1-0.5,0.1-0.8h-2.1c-0.2,0-0.3-0.2-0.5-0.6h2.6
		c0-0.5,0-1.2,0-1.9l0.7,0.2c0.1,0,0.2,0.1,0.2,0.2v0.9c0,0.2,0,0.4,0,0.6h1c0.3,0,0.4-0.1,0.5-0.3l0.8,0.3c0.5,0.2,0.1,0.5,0.1,0.8
		v2.7c0,0.5,0,0.6,0.4,0.6c0.6,0,1,0,1.5-0.1c0.2,0,0.3-0.2,0.3-0.5l0.1-0.9c0-0.1,0.2-0.1,0.2,0c0.1,0.9,0.2,1.1,0.4,1.3
		C168.3,10.4,168.3,10.7,168,10.8z"/>
	<path class="st2" d="M173,6.6c-0.1,1.6-0.3,3.8-1.7,4.7c-0.1,0.1-0.3,0-0.2-0.2c0.7-1.3,0.9-2.8,1-5.2c0-1.2,0-2.9,0-4.6l0.7,0.2
		c0.1,0,0.1,0,0.2,0.1c1-0.3,1.6-0.6,2.4-1.1l0.5,0.5c0.2,0.2,0.2,0.3,0,0.4c-0.8,0.2-1.7,0.4-2.8,0.6v1.3h1.2
		c0.2,0,0.4-0.1,0.5-0.3l0.8,0.2c0.4,0.1,0.1,0.5,0.1,0.7v2.4c0,0.5-0.4,0.7-0.9,0.7V6.6H173z M173.1,4v0.9c0,0.2,0,0.7,0,1h1.7V4
		H173.1z M181.2,4.4c0,0.3-0.2,0.4-0.6,0.4h-0.9v5.9c0,0.4-0.4,0.7-0.9,0.6V4.9h-1.5c0,0.2,0,0.3,0,0.5c-0.1,1.7-0.4,4.9-3.2,5.9
		c-0.1,0-0.3-0.1-0.1-0.2c2-1.6,2.4-3.3,2.4-5.7c0-1.2,0-2.3,0-4l0.7,0.2c0.1,0,0.2,0,0.2,0.1c1.2-0.4,2-0.7,2.9-1.2l0.4,0.5
		c0.2,0.2,0.2,0.3,0,0.4c-0.9,0.2-2,0.5-3.3,0.6v2.2h2.8c0.2,0,0.4-0.1,0.6-0.4C181,4.1,181.2,4.2,181.2,4.4z"/>
</g>
</svg>
